<mxfile host="app.diagrams.net" agent="Mozilla/5.0 (Macintosh; Intel Mac OS X 10_15_7) AppleWebKit/537.36 (KHTML, like Gecko) Chrome/127.0.0.0 Safari/537.36" version="24.7.7">
  <diagram name="第 1 页" id="vhEut15Kak1xEYn5B31E">
    <mxGraphModel dx="954" dy="557" grid="1" gridSize="10" guides="1" tooltips="1" connect="1" arrows="1" fold="1" page="1" pageScale="1" pageWidth="827" pageHeight="1169" math="0" shadow="0">
      <root>
        <mxCell id="0" />
        <mxCell id="1" parent="0" />
        <mxCell id="JvDSZgQpRml9D514sd0_-27" value="" style="edgeStyle=orthogonalEdgeStyle;rounded=0;orthogonalLoop=1;jettySize=auto;html=1;fontSize=15;" parent="1" source="JvDSZgQpRml9D514sd0_-21" target="JvDSZgQpRml9D514sd0_-24" edge="1">
          <mxGeometry relative="1" as="geometry" />
        </mxCell>
        <mxCell id="JvDSZgQpRml9D514sd0_-21" value="&lt;font color=&quot;#000000&quot; style=&quot;font-size: 15px;&quot;&gt;合成场景JSON&lt;/font&gt;" style="whiteSpace=wrap;html=1;rounded=1;fontSize=15;fillColor=#76D5E8;strokeColor=none;fontColor=#FFFFFF;" parent="1" vertex="1">
          <mxGeometry x="80" y="620" width="150" height="60" as="geometry" />
        </mxCell>
        <mxCell id="JvDSZgQpRml9D514sd0_-30" style="edgeStyle=orthogonalEdgeStyle;rounded=0;orthogonalLoop=1;jettySize=auto;html=1;exitX=1;exitY=0.5;exitDx=0;exitDy=0;entryX=0;entryY=0.5;entryDx=0;entryDy=0;fontSize=15;" parent="1" source="JvDSZgQpRml9D514sd0_-22" target="JvDSZgQpRml9D514sd0_-25" edge="1">
          <mxGeometry relative="1" as="geometry" />
        </mxCell>
        <mxCell id="JvDSZgQpRml9D514sd0_-22" value="&lt;font color=&quot;#000000&quot; style=&quot;font-size: 15px;&quot;&gt;图片视频素材&lt;/font&gt;" style="whiteSpace=wrap;html=1;rounded=1;fontSize=15;fillColor=#76D5E8;strokeColor=none;fontColor=#FFFFFF;" parent="1" vertex="1">
          <mxGeometry x="80" y="710" width="150" height="60" as="geometry" />
        </mxCell>
        <mxCell id="JvDSZgQpRml9D514sd0_-32" value="快进 &amp;amp; 解封装解码" style="edgeStyle=orthogonalEdgeStyle;rounded=0;orthogonalLoop=1;jettySize=auto;html=1;exitX=1;exitY=0.5;exitDx=0;exitDy=0;entryX=0.5;entryY=1;entryDx=0;entryDy=0;fontSize=15;" parent="1" source="JvDSZgQpRml9D514sd0_-23" target="JvDSZgQpRml9D514sd0_-25" edge="1">
          <mxGeometry relative="1" as="geometry" />
        </mxCell>
        <mxCell id="JvDSZgQpRml9D514sd0_-23" value="&lt;font color=&quot;#000000&quot; style=&quot;font-size: 15px;&quot;&gt;进度条点击第x秒&lt;/font&gt;" style="whiteSpace=wrap;html=1;rounded=1;fontSize=15;fillColor=#76D5E8;strokeColor=none;fontColor=#FFFFFF;" parent="1" vertex="1">
          <mxGeometry x="80" y="800" width="150" height="60" as="geometry" />
        </mxCell>
        <mxCell id="JvDSZgQpRml9D514sd0_-28" value="变换、滤镜、叠加" style="edgeStyle=orthogonalEdgeStyle;rounded=0;orthogonalLoop=1;jettySize=auto;html=1;exitX=1;exitY=0.5;exitDx=0;exitDy=0;entryX=0;entryY=0.5;entryDx=0;entryDy=0;fontSize=15;" parent="1" source="JvDSZgQpRml9D514sd0_-24" target="JvDSZgQpRml9D514sd0_-26" edge="1">
          <mxGeometry relative="1" as="geometry" />
        </mxCell>
        <mxCell id="JvDSZgQpRml9D514sd0_-24" value="Filtergraph" style="whiteSpace=wrap;html=1;rounded=1;fontSize=15;fillColor=#FFE1C9;strokeColor=none;" parent="1" vertex="1">
          <mxGeometry x="280" y="620" width="150" height="60" as="geometry" />
        </mxCell>
        <mxCell id="JvDSZgQpRml9D514sd0_-31" value="多个原始帧" style="edgeStyle=orthogonalEdgeStyle;rounded=0;orthogonalLoop=1;jettySize=auto;html=1;exitX=0.5;exitY=0;exitDx=0;exitDy=0;entryX=0.5;entryY=1;entryDx=0;entryDy=0;fontSize=15;" parent="1" source="JvDSZgQpRml9D514sd0_-25" target="JvDSZgQpRml9D514sd0_-24" edge="1">
          <mxGeometry x="0.037" relative="1" as="geometry">
            <mxPoint as="offset" />
          </mxGeometry>
        </mxCell>
        <mxCell id="JvDSZgQpRml9D514sd0_-25" value="原始帧" style="whiteSpace=wrap;html=1;rounded=1;fontSize=15;fillColor=#FFE1C9;strokeColor=none;" parent="1" vertex="1">
          <mxGeometry x="280" y="710" width="150" height="60" as="geometry" />
        </mxCell>
        <mxCell id="JvDSZgQpRml9D514sd0_-26" value="预览结果帧" style="whiteSpace=wrap;html=1;rounded=1;fontSize=15;fillColor=#71E08E;strokeColor=none;fontColor=#000000;gradientColor=none;" parent="1" vertex="1">
          <mxGeometry x="580" y="620" width="150" height="60" as="geometry" />
        </mxCell>
      </root>
    </mxGraphModel>
  </diagram>
</mxfile>
